<svg xmlns="http://www.w3.org/2000/svg" viewBox="40 196 840 180"><defs><linearGradient id="g" x1="70" y1="0" x2="318" y2="0" gradientUnits="userSpaceOnUse"><stop offset="0" stop-color="#0C5DE2"/><stop offset="0.5" stop-color="#039BF0"/><stop offset="1" stop-color="#0AC9EE"/></linearGradient><radialGradient id="gloss" cx="0.35" cy="0.3" r="0.75"><stop offset="0" stop-color="#fff" stop-opacity="0.30"/><stop offset="0.5" stop-color="#fff" stop-opacity="0"/></radialGradient><filter id="sh" x="-60%" y="-60%" width="220%" height="220%"><feDropShadow dx="0" dy="3" stdDeviation="2.8" flood-color="#03306F" flood-opacity="0.20"/></filter><filter id="shS" x="-80%" y="-80%" width="260%" height="260%"><feDropShadow dx="1" dy="2.5" stdDeviation="2.6" flood-color="#03306F" flood-opacity="0.16"/></filter></defs><rect x="40" y="196" width="840" height="180"  fill="#000F26"/><polygon points="207,290 252,332 305,228" fill="#2ACFF6" opacity="0.55"/><g fill="none" stroke="url(#g)" stroke-width="24" stroke-linecap="round" stroke-linejoin="round"><polyline points="95,232 148,292 207,232"/><polyline points="207,290 252,332 305,228"/></g><g fill="none" stroke="url(#g)" stroke-width="24" stroke-linecap="round" filter="url(#shS)"><line x1="207" y1="232" x2="256" y2="286"/><line x1="150" y1="332" x2="196" y2="306"/></g><g fill="url(#g)" filter="url(#sh)"><circle cx="95" cy="232" r="19"/><circle cx="207" cy="232" r="19"/><circle cx="305" cy="228" r="19"/><circle cx="207" cy="290" r="19"/><circle cx="150" cy="332" r="19"/></g><g fill="url(#gloss)"><circle cx="95" cy="232" r="19"/><circle cx="207" cy="232" r="19"/><circle cx="305" cy="228" r="19"/><circle cx="207" cy="290" r="19"/><circle cx="150" cy="332" r="19"/></g><path d="M21.9 -65.99L21.9 -0.0L5.83 -0.0L5.83 -65.99L21.9 -65.99ZM57.43 0.66Q50.2 0.66 44.46 -1.69Q38.73 -4.04 35.29 -8.64Q31.87 -13.25 31.68 -19.74L48.79 -19.74Q49.16 -16.07 51.32 -14.14Q53.49 -12.22 56.96 -12.22Q60.54 -12.22 62.6 -13.86Q64.67 -15.51 64.67 -18.42Q64.67 -20.87 63.02 -22.46Q61.38 -24.06 58.98 -25.09Q56.59 -26.13 52.17 -27.45Q45.78 -29.42 41.73 -31.39Q37.69 -33.37 34.78 -37.22Q31.87 -41.08 31.87 -47.28Q31.87 -56.49 38.54 -61.7Q45.21 -66.93 55.93 -66.93Q66.83 -66.93 73.5 -61.7Q80.18 -56.49 80.65 -47.19L63.26 -47.19Q63.07 -50.38 60.91 -52.21Q58.75 -54.05 55.37 -54.05Q52.45 -54.05 50.66 -52.49Q48.88 -50.95 48.88 -48.03Q48.88 -44.84 51.89 -43.05Q54.9 -41.27 61.29 -39.2Q67.68 -37.04 71.67 -35.06Q75.67 -33.09 78.58 -29.33Q81.5 -25.57 81.5 -19.65Q81.5 -14.01 78.62 -9.4Q75.76 -4.79 70.31 -2.06Q64.86 0.66 57.43 0.66ZM141.66 -44.74Q141.66 -39.01 139.02 -34.27Q136.39 -29.52 130.94 -26.6Q125.49 -23.69 117.41 -23.69L107.44 -23.69L107.44 -0.0L91.37 -0.0L91.37 -65.99L117.41 -65.99Q125.3 -65.99 130.75 -63.26Q136.21 -60.54 138.93 -55.74Q141.66 -50.95 141.66 -44.74ZM116.18 -36.47Q120.79 -36.47 123.04 -38.63Q125.3 -40.8 125.3 -44.74Q125.3 -48.69 123.04 -50.85Q120.79 -53.02 116.18 -53.02L107.44 -53.02L107.44 -36.47L116.18 -36.47Z" fill="#FFFFFF" transform="translate(370,305)"/><path d="M94.19 -65.61L75.86 -0.0L60.35 -0.0L48.03 -46.72L35.16 -0.0L19.74 0.09L2.07 -65.61L16.17 -65.61L27.73 -14.66L41.08 -65.61L55.74 -65.61L68.34 -14.95L79.99 -65.61L94.19 -65.61ZM99.36 -26.23Q99.36 -34.12 102.5 -40.23Q105.66 -46.34 111.06 -49.63Q116.47 -52.92 123.13 -52.92Q128.97 -52.92 133.33 -50.57Q137.7 -48.22 140.35 -44.65L140.35 -52.08L153.6 -52.08L153.6 -0.0L140.35 -0.0L140.35 -7.61Q137.81 -3.95 133.34 -1.54Q128.88 0.85 123.05 0.85Q116.47 0.85 111.06 -2.53Q105.66 -5.92 102.5 -12.07Q99.36 -18.24 99.36 -26.23ZM140.35 -26.04Q140.35 -30.83 138.47 -34.25Q136.59 -37.69 133.39 -39.52Q130.18 -41.36 126.53 -41.36Q122.86 -41.36 119.76 -39.57Q116.66 -37.79 114.72 -34.35Q112.79 -30.93 112.79 -26.23Q112.79 -21.53 114.72 -18.01Q116.66 -14.48 119.8 -12.6Q122.96 -10.72 126.53 -10.72Q130.18 -10.72 133.39 -12.54Q136.59 -14.38 138.47 -17.8Q140.35 -21.24 140.35 -26.04ZM181.8 -41.27L181.8 -16.07Q181.8 -13.44 183.06 -12.26Q184.34 -11.09 187.34 -11.09L193.45 -11.09L193.45 -0.0L185.18 -0.0Q168.54 -0.0 168.54 -16.17L168.54 -41.27L162.34 -41.27L162.34 -52.08L168.54 -52.08L168.54 -64.95L181.8 -64.95L181.8 -52.08L193.45 -52.08L193.45 -41.27L181.8 -41.27ZM199.56 -26.04Q199.56 -34.12 202.85 -40.18Q206.14 -46.25 211.97 -49.58Q217.8 -52.92 225.32 -52.92Q235.0 -52.92 241.34 -48.07Q247.69 -43.24 249.85 -34.5L235.66 -34.5Q234.53 -37.88 231.84 -39.8Q229.17 -41.74 225.22 -41.74Q219.58 -41.74 216.29 -37.64Q213.0 -33.56 213.0 -26.04Q213.0 -18.61 216.29 -14.51Q219.58 -10.43 225.22 -10.43Q233.21 -10.43 235.66 -17.58L249.85 -17.58Q247.69 -9.12 241.3 -4.13Q234.91 0.85 225.32 0.85Q217.8 0.85 211.97 -2.48Q206.14 -5.83 202.85 -11.88Q199.56 -17.95 199.56 -26.04ZM288.86 -52.83Q294.79 -52.83 299.39 -50.25Q304.0 -47.66 306.58 -42.62Q309.17 -37.6 309.17 -30.55L309.17 -0.0L296.01 -0.0L296.01 -28.76Q296.01 -34.97 292.9 -38.3Q289.8 -41.64 284.45 -41.64Q278.99 -41.64 275.84 -38.3Q272.7 -34.97 272.7 -28.76L272.7 -0.0L259.54 -0.0L259.54 -69.56L272.7 -69.56L272.7 -45.59Q275.23 -48.97 279.46 -50.89Q283.69 -52.83 288.86 -52.83Z" fill="#2B83F0" transform="translate(535.66,305)"/><g fill="#E7ECF3" transform="translate(372,350)"><path d="M17.75 -15.29L17.75 -0.0L15.25 -0.0L15.25 -10.47L10.58 -0.0L8.84 -0.0L4.16 -10.47L4.16 -0.0L1.65 -0.0L1.65 -15.29L4.36 -15.29L9.72 -3.3L15.07 -15.29L17.75 -15.29Z" transform="translate(0.0,0)"/><path d="M8.62 0.15Q6.49 0.15 4.7 -0.85Q2.9 -1.85 1.86 -3.64Q0.81 -5.43 0.81 -7.68Q0.81 -9.92 1.86 -11.7Q2.9 -13.49 4.7 -14.49Q6.49 -15.49 8.62 -15.49Q10.78 -15.49 12.57 -14.49Q14.37 -13.49 15.4 -11.7Q16.43 -9.92 16.43 -7.68Q16.43 -5.43 15.4 -3.64Q14.37 -1.85 12.57 -0.85Q10.78 0.15 8.62 0.15ZM8.62 -2.02Q10.14 -2.02 11.33 -2.72Q12.52 -3.41 13.19 -4.7Q13.86 -5.98 13.86 -7.68Q13.86 -9.37 13.19 -10.65Q12.52 -11.92 11.33 -12.61Q10.14 -13.29 8.62 -13.29Q7.11 -13.29 5.92 -12.61Q4.73 -11.92 4.06 -10.65Q3.39 -9.37 3.39 -7.68Q3.39 -5.98 4.06 -4.7Q4.73 -3.41 5.92 -2.72Q7.11 -2.02 8.62 -2.02Z" transform="translate(23.25,0)"/><path d="M14.21 -0.0L11.7 -0.0L4.16 -11.42L4.16 -0.0L1.65 -0.0L1.65 -15.31L4.16 -15.31L11.7 -3.92L11.7 -15.31L14.21 -15.31L14.21 -0.0Z" transform="translate(45.18,0)"/><path d="M4.16 -15.29L4.16 -0.0L1.65 -0.0L1.65 -15.29L4.16 -15.29Z" transform="translate(64.89,0)"/><path d="M11.53 -15.29L11.53 -13.24L7.46 -13.24L7.46 -0.0L4.95 -0.0L4.95 -13.24L0.86 -13.24L0.86 -15.29L11.53 -15.29Z" transform="translate(74.55,0)"/><path d="M8.62 0.15Q6.49 0.15 4.7 -0.85Q2.9 -1.85 1.86 -3.64Q0.81 -5.43 0.81 -7.68Q0.81 -9.92 1.86 -11.7Q2.9 -13.49 4.7 -14.49Q6.49 -15.49 8.62 -15.49Q10.78 -15.49 12.57 -14.49Q14.37 -13.49 15.4 -11.7Q16.43 -9.92 16.43 -7.68Q16.43 -5.43 15.4 -3.64Q14.37 -1.85 12.57 -0.85Q10.78 0.15 8.62 0.15ZM8.62 -2.02Q10.14 -2.02 11.33 -2.72Q12.52 -3.41 13.19 -4.7Q13.86 -5.98 13.86 -7.68Q13.86 -9.37 13.19 -10.65Q12.52 -11.92 11.33 -12.61Q10.14 -13.29 8.62 -13.29Q7.11 -13.29 5.92 -12.61Q4.73 -11.92 4.06 -10.65Q3.39 -9.37 3.39 -7.68Q3.39 -5.98 4.06 -4.7Q4.73 -3.41 5.92 -2.72Q7.11 -2.02 8.62 -2.02Z" transform="translate(91.58,0)"/><path d="M9.59 -0.0L6.07 -6.12L4.16 -6.12L4.16 -0.0L1.65 -0.0L1.65 -15.29L6.93 -15.29Q8.69 -15.29 9.91 -14.67Q11.13 -14.06 11.74 -13.02Q12.34 -11.99 12.34 -10.71Q12.34 -9.22 11.47 -8.0Q10.6 -6.78 8.8 -6.34L12.58 -0.0L9.59 -0.0ZM4.16 -8.12L6.93 -8.12Q8.34 -8.12 9.05 -8.82Q9.77 -9.53 9.77 -10.71Q9.77 -11.9 9.06 -12.57Q8.36 -13.24 6.93 -13.24L4.16 -13.24L4.16 -8.12Z" transform="translate(113.51,0)"/></g><circle cx="523.39" cy="342.52" r="2.53" fill="#2B83F0"/><g fill="#2B83F0" transform="translate(545.72,350)"><path d="M17.75 -15.29L17.75 -0.0L15.25 -0.0L15.25 -10.47L10.58 -0.0L8.84 -0.0L4.16 -10.47L4.16 -0.0L1.65 -0.0L1.65 -15.29L4.36 -15.29L9.72 -3.3L15.07 -15.29L17.75 -15.29Z" transform="translate(0.0,0)"/><path d="M10.87 -3.12L4.47 -3.12L3.37 -0.0L0.75 -0.0L6.23 -15.31L9.13 -15.31L14.61 -0.0L11.97 -0.0L10.87 -3.12ZM10.16 -5.17L7.68 -12.28L5.17 -5.17L10.16 -5.17Z" transform="translate(23.25,0)"/><path d="M14.21 -0.0L11.7 -0.0L4.16 -11.42L4.16 -0.0L1.65 -0.0L1.65 -15.31L4.16 -15.31L11.7 -3.92L11.7 -15.31L14.21 -15.31L14.21 -0.0Z" transform="translate(43.36,0)"/><path d="M10.87 -3.12L4.47 -3.12L3.37 -0.0L0.75 -0.0L6.23 -15.31L9.13 -15.31L14.61 -0.0L11.97 -0.0L10.87 -3.12ZM10.16 -5.17L7.68 -12.28L5.17 -5.17L10.16 -5.17Z" transform="translate(63.07,0)"/><path d="M12.72 -10.89Q12.12 -12.03 11.07 -12.62Q10.01 -13.2 8.62 -13.2Q7.11 -13.2 5.92 -12.52Q4.73 -11.84 4.06 -10.58Q3.39 -9.33 3.39 -7.68Q3.39 -6.03 4.06 -4.76Q4.73 -3.5 5.92 -2.82Q7.11 -2.13 8.62 -2.13Q10.67 -2.13 11.95 -3.28Q13.22 -4.42 13.51 -6.38L7.77 -6.38L7.77 -8.38L16.19 -8.38L16.19 -6.42Q15.95 -4.64 14.93 -3.15Q13.9 -1.65 12.27 -0.76Q10.63 0.13 8.62 0.13Q6.47 0.13 4.69 -0.87Q2.9 -1.87 1.86 -3.65Q0.81 -5.43 0.81 -7.68Q0.81 -9.92 1.86 -11.7Q2.9 -13.49 4.7 -14.49Q6.49 -15.49 8.62 -15.49Q11.07 -15.49 12.97 -14.29Q14.87 -13.09 15.73 -10.89L12.72 -10.89Z" transform="translate(83.18,0)"/><path d="M4.16 -13.27L4.16 -8.78L9.44 -8.78L9.44 -6.73L4.16 -6.73L4.16 -2.05L10.1 -2.05L10.1 -0.0L1.65 -0.0L1.65 -15.31L10.1 -15.31L10.1 -13.27L4.16 -13.27Z" transform="translate(104.87,0)"/></g><circle cx="685.99" cy="342.52" r="2.53" fill="#10C3EE"/><g fill="#10C3EE" transform="translate(708.32,350)"><path d="M10.87 -3.12L4.47 -3.12L3.37 -0.0L0.75 -0.0L6.23 -15.31L9.13 -15.31L14.61 -0.0L11.97 -0.0L10.87 -3.12ZM10.16 -5.17L7.68 -12.28L5.17 -5.17L10.16 -5.17Z" transform="translate(0.0,0)"/><path d="M4.14 -15.29L4.14 -5.54Q4.14 -3.81 5.05 -2.93Q5.96 -2.05 7.59 -2.05Q9.24 -2.05 10.15 -2.93Q11.07 -3.81 11.07 -5.54L11.07 -15.29L13.57 -15.29L13.57 -5.59Q13.57 -3.72 12.76 -2.42Q11.95 -1.12 10.58 -0.48Q9.22 0.15 7.57 0.15Q5.92 0.15 4.57 -0.48Q3.21 -1.12 2.42 -2.42Q1.63 -3.72 1.63 -5.59L1.63 -15.29L4.14 -15.29Z" transform="translate(20.11,0)"/><path d="M11.53 -15.29L11.53 -13.24L7.46 -13.24L7.46 -0.0L4.95 -0.0L4.95 -13.24L0.86 -13.24L0.86 -15.29L11.53 -15.29Z" transform="translate(39.18,0)"/><path d="M8.62 0.15Q6.49 0.15 4.7 -0.85Q2.9 -1.85 1.86 -3.64Q0.81 -5.43 0.81 -7.68Q0.81 -9.92 1.86 -11.7Q2.9 -13.49 4.7 -14.49Q6.49 -15.49 8.62 -15.49Q10.78 -15.49 12.57 -14.49Q14.37 -13.49 15.4 -11.7Q16.43 -9.92 16.43 -7.68Q16.43 -5.43 15.4 -3.64Q14.37 -1.85 12.57 -0.85Q10.78 0.15 8.62 0.15ZM8.62 -2.02Q10.14 -2.02 11.33 -2.72Q12.52 -3.41 13.19 -4.7Q13.86 -5.98 13.86 -7.68Q13.86 -9.37 13.19 -10.65Q12.52 -11.92 11.33 -12.61Q10.14 -13.29 8.62 -13.29Q7.11 -13.29 5.92 -12.61Q4.73 -11.92 4.06 -10.65Q3.39 -9.37 3.39 -7.68Q3.39 -5.98 4.06 -4.7Q4.73 -3.41 5.92 -2.72Q7.11 -2.02 8.62 -2.02Z" transform="translate(56.21,0)"/><path d="M17.75 -15.29L17.75 -0.0L15.25 -0.0L15.25 -10.47L10.58 -0.0L8.84 -0.0L4.16 -10.47L4.16 -0.0L1.65 -0.0L1.65 -15.29L4.36 -15.29L9.72 -3.3L15.07 -15.29L17.75 -15.29Z" transform="translate(78.14,0)"/><path d="M10.87 -3.12L4.47 -3.12L3.37 -0.0L0.75 -0.0L6.23 -15.31L9.13 -15.31L14.61 -0.0L11.97 -0.0L10.87 -3.12ZM10.16 -5.17L7.68 -12.28L5.17 -5.17L10.16 -5.17Z" transform="translate(101.39,0)"/><path d="M11.53 -15.29L11.53 -13.24L7.46 -13.24L7.46 -0.0L4.95 -0.0L4.95 -13.24L0.86 -13.24L0.86 -15.29L11.53 -15.29Z" transform="translate(121.5,0)"/><path d="M4.16 -13.27L4.16 -8.78L9.44 -8.78L9.44 -6.73L4.16 -6.73L4.16 -2.05L10.1 -2.05L10.1 -0.0L1.65 -0.0L1.65 -15.31L10.1 -15.31L10.1 -13.27L4.16 -13.27Z" transform="translate(138.53,0)"/></g></svg>